<svg width="20" height="19" viewBox="0 0 20 19" fill="none" xmlns="http://www.w3.org/2000/svg">
<g id="logout-2-svgrepo-com 1">
<path id="Vector" d="M7.62646 5.54165C7.63605 3.81975 7.71241 2.88724 8.32071 2.27893C9.01635 1.58331 10.1359 1.58331 12.3751 1.58331H13.1667C15.4059 1.58331 16.5256 1.58331 17.2211 2.27893C17.9167 2.97456 17.9167 4.09414 17.9167 6.33331V12.6666C17.9167 14.9058 17.9167 16.0254 17.2211 16.721C16.5256 17.4166 15.4059 17.4166 13.1667 17.4166H12.3751C10.1359 17.4166 9.01635 17.4166 8.32071 16.721C7.71241 16.1127 7.63605 15.1802 7.62646 13.4583" stroke="black" stroke-width="1.5" stroke-linecap="round"/>
<path id="Vector_2" d="M12.3752 9.5H2.0835M2.0835 9.5L4.85433 7.125M2.0835 9.5L4.85433 11.875" stroke="black" stroke-width="1.5" stroke-linecap="round" stroke-linejoin="round"/>
</g>
</svg>
