<svg width="21" height="20" viewBox="0 0 21 20" fill="none" xmlns="http://www.w3.org/2000/svg">
<g id="settings-minimalistic-svgrepo-com 1">
<path id="Vector" d="M6.62428 3.16845C8.31488 2.16727 9.16021 1.66669 10.0884 1.66669C11.0165 1.66669 11.8619 2.16727 13.5525 3.16845L14.1243 3.50707C15.8149 4.50824 16.6602 5.00883 17.1243 5.83335C17.5884 6.65788 17.5884 7.65905 17.5884 9.66144V10.3386C17.5884 12.341 17.5884 13.3422 17.1243 14.1667C16.6602 14.9912 15.8149 15.4918 14.1243 16.4929L13.5525 16.8316C11.8619 17.8328 11.0165 18.3334 10.0884 18.3334C9.16021 18.3334 8.31488 17.8328 6.62428 16.8316L6.05248 16.4929C4.36188 15.4918 3.51658 14.9912 3.05248 14.1667C2.58838 13.3422 2.58838 12.341 2.58838 10.3386V9.66144C2.58838 7.65905 2.58838 6.65788 3.05248 5.83335C3.51658 5.00883 4.36188 4.50824 6.05248 3.50707L6.62428 3.16845Z" stroke="black" stroke-width="2"/>
<path id="Vector_2" d="M10.0884 12.5C11.4691 12.5 12.5884 11.3807 12.5884 10C12.5884 8.61929 11.4691 7.5 10.0884 7.5C8.70767 7.5 7.58838 8.61929 7.58838 10C7.58838 11.3807 8.70767 12.5 10.0884 12.5Z" stroke="black" stroke-width="2"/>
</g>
</svg>
