<svg width="21" height="20" viewBox="0 0 21 20" fill="none" xmlns="http://www.w3.org/2000/svg">
<g id="vuesax/outline/call">
<g id="call">
<path id="Vector" d="M14.5708 18.9583C13.6291 18.9583 12.6375 18.7333 11.6125 18.3C10.6125 17.875 9.60413 17.2917 8.6208 16.5833C7.6458 15.8667 6.70413 15.0667 5.81247 14.1917C4.92913 13.3 4.12913 12.3583 3.4208 11.3917C2.70413 10.3917 2.12913 9.39166 1.7208 8.42499C1.28747 7.39166 1.0708 6.39166 1.0708 5.44999C1.0708 4.79999 1.18747 4.18332 1.41247 3.60832C1.6458 3.01666 2.0208 2.46666 2.52913 1.99166C3.1708 1.35832 3.90413 1.04166 4.68747 1.04166C5.01247 1.04166 5.3458 1.11666 5.62913 1.24999C5.95413 1.39999 6.22913 1.62499 6.42913 1.92499L8.36247 4.64999C8.53747 4.89166 8.6708 5.12499 8.76247 5.35832C8.8708 5.60832 8.92913 5.85832 8.92913 6.09999C8.92913 6.41666 8.83747 6.72499 8.66247 7.01666C8.53747 7.24166 8.3458 7.48332 8.10413 7.72499L7.53747 8.31666C7.5458 8.34166 7.55413 8.35832 7.56247 8.37499C7.66247 8.54999 7.86247 8.84999 8.2458 9.29999C8.65413 9.76666 9.03747 10.1917 9.4208 10.5833C9.91247 11.0667 10.3208 11.45 10.7041 11.7667C11.1791 12.1667 11.4875 12.3667 11.6708 12.4583L11.6541 12.5L12.2625 11.9C12.5208 11.6417 12.7708 11.45 13.0125 11.325C13.4708 11.0417 14.0541 10.9917 14.6375 11.2333C14.8541 11.325 15.0875 11.45 15.3375 11.625L18.1041 13.5917C18.4125 13.8 18.6375 14.0667 18.7708 14.3833C18.8958 14.7 18.9541 14.9917 18.9541 15.2833C18.9541 15.6833 18.8625 16.0833 18.6875 16.4583C18.5125 16.8333 18.2958 17.1583 18.0208 17.4583C17.5458 17.9833 17.0291 18.3583 16.4291 18.6C15.8541 18.8333 15.2291 18.9583 14.5708 18.9583ZM4.68747 2.29166C4.22913 2.29166 3.80413 2.49166 3.3958 2.89166C3.01247 3.24999 2.7458 3.64166 2.57913 4.06666C2.40413 4.49999 2.3208 4.95832 2.3208 5.44999C2.3208 6.22499 2.50413 7.06666 2.8708 7.93332C3.2458 8.81666 3.7708 9.73332 4.43747 10.65C5.10413 11.5667 5.86247 12.4583 6.6958 13.3C7.52913 14.125 8.42913 14.8917 9.35413 15.5667C10.2541 16.225 11.1791 16.7583 12.0958 17.1417C13.5208 17.75 14.8541 17.8917 15.9541 17.4333C16.3791 17.2583 16.7541 16.9917 17.0958 16.6083C17.2875 16.4 17.4375 16.175 17.5625 15.9083C17.6625 15.7 17.7125 15.4833 17.7125 15.2667C17.7125 15.1333 17.6875 15 17.6208 14.85C17.5958 14.8 17.5458 14.7083 17.3875 14.6L14.6208 12.6333C14.4541 12.5167 14.3041 12.4333 14.1625 12.375C13.9791 12.3 13.9041 12.225 13.6208 12.4C13.4541 12.4833 13.3041 12.6083 13.1375 12.775L12.5041 13.4C12.1791 13.7167 11.6791 13.7917 11.2958 13.65L11.0708 13.55C10.7291 13.3667 10.3291 13.0833 9.88747 12.7083C9.48747 12.3667 9.05413 11.9667 8.52913 11.45C8.1208 11.0333 7.71247 10.5917 7.28747 10.1C6.8958 9.64166 6.61247 9.24999 6.43747 8.92499L6.33747 8.67499C6.28747 8.48332 6.2708 8.37499 6.2708 8.25832C6.2708 7.95832 6.37913 7.69166 6.58747 7.48332L7.21247 6.83332C7.37913 6.66666 7.50413 6.50832 7.58747 6.36666C7.65413 6.25832 7.67913 6.16666 7.67913 6.08332C7.67913 6.01666 7.65413 5.91666 7.61247 5.81666C7.55413 5.68332 7.46247 5.53332 7.3458 5.37499L5.41247 2.64166C5.32913 2.52499 5.22913 2.44166 5.10413 2.38332C4.9708 2.32499 4.82913 2.29166 4.68747 2.29166ZM11.6541 12.5083L11.5208 13.075L11.7458 12.4917C11.7041 12.4833 11.6708 12.4917 11.6541 12.5083Z" fill="black"/>
</g>
</g>
</svg>
