<svg width="13" height="23" viewBox="0 0 13 23" fill="none" xmlns="http://www.w3.org/2000/svg">
<g id="facebook">
<g id="facebook_2">
<path id="Vector" d="M7.86686 5.30983V9.16259H11.5009C11.7635 9.16259 11.9569 9.38459 11.9017 9.63274L11.3766 12.1142C11.3351 12.297 11.1693 12.4276 10.9758 12.4276H7.86686V21.8962H3.72155V12.4276H1.37252C1.13762 12.4276 0.958008 12.2579 0.958008 12.0358V9.55438C0.958008 9.33236 1.13762 9.16259 1.37252 9.16259H3.72155V4.91804C3.72155 2.75006 5.57312 1 7.86686 1H11.5977C11.8326 1 12.0122 1.16977 12.0122 1.39179V4.52625C12.0122 4.74828 11.8326 4.91804 11.5977 4.91804H8.28138C8.04648 4.91804 7.86686 5.08781 7.86686 5.30983Z" stroke="black" stroke-width="1.5" stroke-miterlimit="10" stroke-linecap="round"/>
</g>
</g>
</svg>
