<svg width="17" height="17" viewBox="0 0 17 17" fill="none" xmlns="http://www.w3.org/2000/svg">
<g id="vuesax/linear/filter">
<g id="filter">
<path id="Vector" d="M3.82487 1.48749H13.1749C13.954 1.48749 14.5915 2.12499 14.5915 2.90416V4.46249C14.5915 5.02916 14.2374 5.73749 13.8832 6.09166L10.8374 8.78332C10.4124 9.13749 10.129 9.84583 10.129 10.4125V13.4583C10.129 13.8833 9.8457 14.45 9.49154 14.6625L8.49987 15.3C7.57904 15.8667 6.30404 15.2292 6.30404 14.0958V10.3417C6.30404 9.84583 6.0207 9.20832 5.73737 8.85416L3.0457 6.02082C2.69154 5.66666 2.4082 5.02916 2.4082 4.60416V2.97499C2.4082 2.12499 3.0457 1.48749 3.82487 1.48749Z" stroke="#595959" stroke-width="1.5" stroke-miterlimit="10" stroke-linecap="round" stroke-linejoin="round"/>
<path id="Vector_2" d="M7.74208 1.48749L4.25 7.08332" stroke="#595959" stroke-width="1.5" stroke-miterlimit="10" stroke-linecap="round" stroke-linejoin="round"/>
</g>
</g>
</svg>
