<svg width="26" height="27" viewBox="0 0 26 27" fill="none" xmlns="http://www.w3.org/2000/svg">
<g id="vuesax/outline/global">
<g id="global">
<path id="Vector" d="M13.0001 25.289C6.57591 25.289 1.35425 20.0673 1.35425 13.6432C1.35425 7.21901 6.57591 1.99734 13.0001 1.99734C19.4242 1.99734 24.6459 7.21901 24.6459 13.6432C24.6459 20.0673 19.4242 25.289 13.0001 25.289ZM13.0001 3.62234C7.47508 3.62234 2.97925 8.11818 2.97925 13.6432C2.97925 19.1682 7.47508 23.664 13.0001 23.664C18.5251 23.664 23.0209 19.1682 23.0209 13.6432C23.0209 8.11818 18.5251 3.62234 13.0001 3.62234Z" fill="black"/>
<path id="Vector_2" d="M9.75001 24.2057H8.66668C8.22251 24.2057 7.85418 23.8374 7.85418 23.3932C7.85418 22.949 8.20084 22.5915 8.64501 22.5807C6.94418 16.774 6.94418 10.5124 8.64501 4.70569C8.20084 4.69486 7.85418 4.33736 7.85418 3.89319C7.85418 3.44902 8.22251 3.08069 8.66668 3.08069H9.75001C10.01 3.08069 10.2592 3.21069 10.4108 3.41652C10.5625 3.63319 10.6058 3.90402 10.5192 4.15319C8.48251 10.274 8.48251 17.0124 10.5192 23.144C10.6058 23.3932 10.5625 23.664 10.4108 23.8807C10.2592 24.0757 10.01 24.2057 9.75001 24.2057Z" fill="black"/>
<path id="Vector_3" d="M16.2501 24.2057C16.1634 24.2057 16.0768 24.1949 15.9901 24.1624C15.5676 24.0215 15.3293 23.5557 15.4809 23.1332C17.5176 17.0124 17.5176 10.274 15.4809 4.14236C15.3401 3.71986 15.5676 3.25402 15.9901 3.11319C16.4234 2.97236 16.8784 3.19986 17.0193 3.62236C19.1751 10.079 19.1751 17.1857 17.0193 23.6315C16.9109 23.989 16.5859 24.2057 16.2501 24.2057Z" fill="black"/>
<path id="Vector_4" d="M13 19.2765C9.9775 19.2765 6.96583 18.854 4.0625 17.9982C4.05167 18.4315 3.69417 18.789 3.25 18.789C2.80583 18.789 2.4375 18.4207 2.4375 17.9765V16.8932C2.4375 16.6332 2.5675 16.384 2.77333 16.2324C2.99 16.0807 3.26083 16.0374 3.51 16.124C9.63083 18.1607 16.38 18.1607 22.5008 16.124C22.75 16.0374 23.0208 16.0807 23.2375 16.2324C23.4542 16.384 23.5733 16.6332 23.5733 16.8932V17.9765C23.5733 18.4207 23.205 18.789 22.7608 18.789C22.3167 18.789 21.9592 18.4424 21.9483 17.9982C19.0342 18.854 16.0225 19.2765 13 19.2765Z" fill="black"/>
<path id="Vector_5" d="M22.7501 11.2057C22.6634 11.2057 22.5768 11.1948 22.4901 11.1623C16.3693 9.12568 9.62009 9.12568 3.49926 11.1623C3.06592 11.3032 2.61092 11.0757 2.47009 10.6532C2.34009 10.2198 2.56759 9.76485 2.99009 9.62402C9.44676 7.46818 16.5534 7.46818 22.9993 9.62402C23.4218 9.76485 23.6601 10.2307 23.5084 10.6532C23.4109 10.989 23.0859 11.2057 22.7501 11.2057Z" fill="black"/>
</g>
</g>
</svg>
