<svg width="28" height="27" viewBox="0 0 28 27" fill="none" xmlns="http://www.w3.org/2000/svg">
<g id="vuesax/outline/heart">
<g id="heart">
<path id="Vector" d="M13.6379 24.3562C13.2892 24.3562 12.9517 24.3112 12.6704 24.21C8.37294 22.7362 1.54419 17.505 1.54419 9.77624C1.54419 5.83874 4.72794 2.64374 8.64294 2.64374C10.5442 2.64374 12.3217 3.38624 13.6379 4.71374C14.9542 3.38624 16.7317 2.64374 18.6329 2.64374C22.5479 2.64374 25.7317 5.84999 25.7317 9.77624C25.7317 17.5162 18.9029 22.7362 14.6054 24.21C14.3242 24.3112 13.9867 24.3562 13.6379 24.3562ZM8.64294 4.33124C5.66169 4.33124 3.23169 6.77249 3.23169 9.77624C3.23169 17.46 10.6229 21.735 13.2217 22.6237C13.4242 22.6912 13.8629 22.6912 14.0654 22.6237C16.6529 21.735 24.0554 17.4712 24.0554 9.77624C24.0554 6.77249 21.6254 4.33124 18.6442 4.33124C16.9342 4.33124 15.3479 5.12999 14.3242 6.51374C14.0092 6.94124 13.2892 6.94124 12.9742 6.51374C11.9279 5.11874 10.3529 4.33124 8.64294 4.33124Z" fill="black"/>
</g>
</g>
</svg>
