<svg width="23" height="17" viewBox="0 0 23 17" fill="none" xmlns="http://www.w3.org/2000/svg">
<g id="help-circle">
<path id="Vector" d="M11.184 0.809875C9.66325 0.809875 8.17664 1.26084 6.91216 2.10573C5.64769 2.95062 4.66215 4.15151 4.08018 5.55651C3.4982 6.96152 3.34593 8.50755 3.64262 9.9991C3.93931 11.4907 4.67163 12.8607 5.74698 13.9361C6.82232 15.0114 8.1924 15.7437 9.68395 16.0404C11.1755 16.3371 12.7215 16.1848 14.1265 15.6029C15.5315 15.0209 16.7324 14.0354 17.5773 12.7709C18.4222 11.5064 18.8732 10.0198 18.8732 8.49902C18.8732 6.45973 18.0631 4.50397 16.6211 3.06197C15.1791 1.61998 13.2233 0.809875 11.184 0.809875Z" stroke="black" stroke-width="1.5" stroke-miterlimit="10"/>
<path id="Vector_2" d="M8.73718 6.23633C8.73718 6.23633 8.77547 5.43859 9.62929 4.75162C10.1357 4.34363 10.7429 4.22556 11.29 4.21736C11.7882 4.21097 12.2331 4.29348 12.4993 4.42021C12.9552 4.6372 13.8427 5.1669 13.8427 6.29331C13.8427 7.47853 13.0678 8.01689 12.1848 8.60904C11.3018 9.2012 11.062 9.84395 11.062 10.5081" stroke="black" stroke-width="1.5" stroke-miterlimit="10" stroke-linecap="round"/>
<path id="Vector_3" d="M10.9437 13.4348C11.4378 13.4348 11.8384 13.0342 11.8384 12.5401C11.8384 12.0459 11.4378 11.6453 10.9437 11.6453C10.4495 11.6453 10.049 12.0459 10.049 12.5401C10.049 13.0342 10.4495 13.4348 10.9437 13.4348Z" fill="black"/>
</g>
</svg>
