<svg width="21" height="21" viewBox="0 0 21 21" fill="none" xmlns="http://www.w3.org/2000/svg">
<g id="icons8-instagram 1" clip-path="url(#clip0_1424_5618)">
<path id="Vector" d="M6.09555 0C2.73858 0 0 2.73858 0 6.09555V14.9044C0 18.2614 2.73858 21 6.09555 21H14.9044C18.2614 21 21 18.2614 21 14.9044V6.09555C21 2.73858 18.2614 0 14.9044 0H6.09555ZM6.09555 1.61538H14.9044C17.3875 1.61538 19.3846 3.60938 19.3846 6.09555V14.9044C19.3846 17.3875 17.3906 19.3846 14.9044 19.3846H6.09555C3.61253 19.3846 1.61538 17.3906 1.61538 14.9044V6.09555C1.61538 3.61253 3.60938 1.61538 6.09555 1.61538ZM16.5577 3.23077C15.8888 3.23077 15.3462 3.77344 15.3462 4.44231C15.3462 5.11118 15.8888 5.65385 16.5577 5.65385C17.2266 5.65385 17.7692 5.11118 17.7692 4.44231C17.7692 3.77344 17.2266 3.23077 16.5577 3.23077ZM10.5 4.84615C7.38597 4.84615 4.84615 7.38597 4.84615 10.5C4.84615 13.614 7.38597 16.1538 10.5 16.1538C13.614 16.1538 16.1538 13.614 16.1538 10.5C16.1538 7.38597 13.614 4.84615 10.5 4.84615ZM10.5 6.46154C12.7401 6.46154 14.5385 8.25992 14.5385 10.5C14.5385 12.7401 12.7401 14.5385 10.5 14.5385C8.25992 14.5385 6.46154 12.7401 6.46154 10.5C6.46154 8.25992 8.25992 6.46154 10.5 6.46154Z" fill="black"/>
</g>
<defs>
<clipPath id="clip0_1424_5618">
<rect width="21" height="21" fill="white"/>
</clipPath>
</defs>
</svg>
