<svg width="21" height="21" viewBox="0 0 21 21" fill="none" xmlns="http://www.w3.org/2000/svg">
<path id="Vector" fill-rule="evenodd" clip-rule="evenodd" d="M12.7993 6.57695V7.39677C13.5918 6.9054 14.5066 6.619 15.8966 6.619C20.4208 6.619 21 9.99418 21 12.9345V20.954L15.769 21V13.33C15.769 12.0424 15.3069 11.7981 14.4526 11.7981C13.6405 11.7981 13.1363 12.0542 13.1363 13.33V21L7.83683 20.954V6.57694L12.7993 6.57695ZM5.26526 6.56829V20.994H0V6.5683L5.26526 6.56829ZM3.94895 7.8821H1.31632V19.6801H3.94895V7.8821ZM11.483 7.89076H9.15314V19.652L11.82 19.6757V13.33C11.82 10.8534 13.4693 10.4842 14.4526 10.4842C15.6531 10.4842 17.0853 10.9782 17.0853 13.33V19.6757L19.6837 19.652V12.9345C19.6837 9.28866 18.6583 7.9328 15.8966 7.9328C14.2368 7.9328 13.5181 8.42417 12.8138 9.0154L12.6309 9.17041H11.483V7.89076ZM2.63263 0C4.08454 0 5.26526 1.17849 5.26526 2.62762C5.26526 4.07677 4.08454 5.25525 2.63263 5.25525C1.18074 5.25525 0 4.07677 0 2.62762C0 1.17849 1.18074 0 2.63263 0ZM2.63263 1.31381C1.90734 1.31381 1.31632 1.90372 1.31632 2.62762C1.31632 3.35153 1.90734 3.94144 2.63263 3.94144C3.35792 3.94144 3.94895 3.35153 3.94895 2.62762C3.94895 1.90372 3.35792 1.31381 2.63263 1.31381Z" fill="black"/>
</svg>
