<svg width="100" height="100" viewBox="0 0 100 100" fill="none" xmlns="http://www.w3.org/2000/svg">
<g id="vuesax/bold/shield-tick">
<path id="Vector" d="M77.2499 17.1666L54.3332 8.58331C51.9582 7.70831 48.0832 7.70831 45.7082 8.58331L22.7915 17.1666C18.3748 18.8333 14.7915 24 14.7915 28.7083V62.4583C14.7915 65.8333 16.9998 70.2916 19.7082 72.2916L42.6248 89.4166C46.6665 92.4583 53.2915 92.4583 57.3332 89.4166L80.2499 72.2916C82.9582 70.25 85.1665 65.8333 85.1665 62.4583V28.7083C85.2082 24 81.6249 18.8333 77.2499 17.1666ZM64.4999 40.5L46.5832 58.4166C45.9582 59.0416 45.1665 59.3333 44.3748 59.3333C43.5832 59.3333 42.7915 59.0416 42.1665 58.4166L35.4998 51.6666C34.2915 50.4583 34.2915 48.4583 35.4998 47.25C36.7082 46.0416 38.7082 46.0416 39.9165 47.25L44.4165 51.75L60.1249 36.0416C61.3332 34.8333 63.3332 34.8333 64.5415 36.0416C65.7499 37.25 65.7499 39.2916 64.4999 40.5Z" fill="#5B85C0"/>
</g>
</svg>
