<svg width="26" height="26" viewBox="0 0 26 26" fill="none" xmlns="http://www.w3.org/2000/svg">
<g id="vuesax/outline/shopping-cart">
<g id="shopping-cart">
<path id="Vector" d="M19.7058 19.2292H8.16828C7.09579 19.2292 6.06662 18.7742 5.34078 17.9833C4.61495 17.1925 4.24663 16.1308 4.33329 15.0583L5.23246 4.26833C5.26496 3.93249 5.14579 3.6075 4.91829 3.35833C4.69079 3.10916 4.37662 2.97916 4.04079 2.97916H2.16663C1.72246 2.97916 1.35413 2.61082 1.35413 2.16666C1.35413 1.72249 1.72246 1.35416 2.16663 1.35416H4.05163C4.84246 1.35416 5.58995 1.68999 6.12079 2.26415C6.41329 2.58915 6.62995 2.96833 6.74912 3.39083H20.28C21.3741 3.39083 22.3816 3.82416 23.1183 4.60416C23.8441 5.39499 24.2125 6.42416 24.1258 7.51833L23.5408 15.6433C23.4216 17.6258 21.6883 19.2292 19.7058 19.2292ZM6.80329 5.00498L5.95829 15.1883C5.90413 15.8166 6.10996 16.4125 6.53246 16.8783C6.95496 17.3441 7.53995 17.5933 8.16828 17.5933H19.7058C20.8325 17.5933 21.8508 16.64 21.9375 15.5133L22.5225 7.38833C22.5658 6.74916 22.36 6.1425 21.9375 5.69833C21.515 5.24333 20.93 4.99414 20.2908 4.99414H6.80329V5.00498Z" fill="black"/>
<path id="Vector_2" d="M17.6042 24.6458C16.4125 24.6458 15.4375 23.6708 15.4375 22.4792C15.4375 21.2875 16.4125 20.3125 17.6042 20.3125C18.7958 20.3125 19.7708 21.2875 19.7708 22.4792C19.7708 23.6708 18.7958 24.6458 17.6042 24.6458ZM17.6042 21.9375C17.3008 21.9375 17.0625 22.1758 17.0625 22.4792C17.0625 22.7825 17.3008 23.0208 17.6042 23.0208C17.9075 23.0208 18.1458 22.7825 18.1458 22.4792C18.1458 22.1758 17.9075 21.9375 17.6042 21.9375Z" fill="black"/>
<path id="Vector_3" d="M8.93754 24.6458C7.74587 24.6458 6.77087 23.6708 6.77087 22.4792C6.77087 21.2875 7.74587 20.3125 8.93754 20.3125C10.1292 20.3125 11.1042 21.2875 11.1042 22.4792C11.1042 23.6708 10.1292 24.6458 8.93754 24.6458ZM8.93754 21.9375C8.63421 21.9375 8.39587 22.1758 8.39587 22.4792C8.39587 22.7825 8.63421 23.0208 8.93754 23.0208C9.24087 23.0208 9.47921 22.7825 9.47921 22.4792C9.47921 22.1758 9.24087 21.9375 8.93754 21.9375Z" fill="black"/>
<path id="Vector_4" d="M22.75 9.47916H9.75C9.30583 9.47916 8.9375 9.11082 8.9375 8.66666C8.9375 8.22249 9.30583 7.85416 9.75 7.85416H22.75C23.1942 7.85416 23.5625 8.22249 23.5625 8.66666C23.5625 9.11082 23.1942 9.47916 22.75 9.47916Z" fill="black"/>
</g>
</g>
</svg>
