<svg width="25" height="25" viewBox="0 0 25 25" fill="none" xmlns="http://www.w3.org/2000/svg">
<g id="tiktok-outline-svgrepo-com 1">
<path id="Vector" d="M17.5227 5.34825C16.759 4.47277 16.3 3.33122 16.3 2.08325H15.3431M17.5227 5.34825C18.2186 6.14641 19.1609 6.72688 20.2339 6.95417C20.5674 7.02673 20.9153 7.06547 21.2778 7.06547V10.6448C19.4219 10.6448 17.7013 10.0499 16.2997 9.04378V16.3236C16.2997 19.9611 13.3419 22.9166 9.71242 22.9166C7.81301 22.9166 6.09729 22.1039 4.89388 20.8124C3.79679 19.6322 3.125 18.0552 3.125 16.3236C3.125 12.7393 5.99581 9.81772 9.55291 9.74032M17.5227 5.34825C17.5041 5.33613 17.4856 5.32389 17.4671 5.31152M7.27662 18.0746C6.91899 17.5813 6.70633 16.9767 6.70633 16.3188C6.70633 14.6597 8.05474 13.3101 9.7125 13.3101C10.0218 13.3101 10.3214 13.3633 10.6017 13.4503V9.79359C10.3117 9.75485 10.017 9.73064 9.7125 9.73064C9.6593 9.73064 9.23107 9.75913 9.17791 9.75913M15.338 2.08325H12.7185L12.7137 16.4348C12.6557 18.0408 11.3314 19.3323 9.71242 19.3323C8.70713 19.3323 7.82268 18.8341 7.27172 18.0795" stroke="black" stroke-width="1.5" stroke-linejoin="round"/>
</g>
</svg>
