<svg width="25" height="25" viewBox="0 0 25 25" fill="none" xmlns="http://www.w3.org/2000/svg">
<g id="vuesax/outline/user">
<g id="user">
<path id="Vector" d="M12.5 13.2813C9.19788 13.2813 6.51038 10.5938 6.51038 7.29168C6.51038 3.98959 9.19788 1.30209 12.5 1.30209C15.802 1.30209 18.4895 3.98959 18.4895 7.29168C18.4895 10.5938 15.802 13.2813 12.5 13.2813ZM12.5 2.86459C10.0625 2.86459 8.07288 4.85418 8.07288 7.29168C8.07288 9.72918 10.0625 11.7188 12.5 11.7188C14.9375 11.7188 16.927 9.72918 16.927 7.29168C16.927 4.85418 14.9375 2.86459 12.5 2.86459Z" fill="black"/>
<path id="Vector_2" d="M21.4481 23.6979C21.021 23.6979 20.6668 23.3438 20.6668 22.9167C20.6668 19.3229 17.0002 16.4063 12.5002 16.4063C8.00016 16.4063 4.3335 19.3229 4.3335 22.9167C4.3335 23.3438 3.97933 23.6979 3.55225 23.6979C3.12516 23.6979 2.771 23.3438 2.771 22.9167C2.771 18.4688 7.13558 14.8438 12.5002 14.8438C17.8647 14.8438 22.2293 18.4688 22.2293 22.9167C22.2293 23.3438 21.8752 23.6979 21.4481 23.6979Z" fill="black"/>
</g>
</g>
</svg>
