<svg width="23" height="23" viewBox="0 0 23 23" fill="none" xmlns="http://www.w3.org/2000/svg">
<path id="Vector" fill-rule="evenodd" clip-rule="evenodd" d="M19.2067 3.80041C17.1605 1.75427 14.4418 0.625 11.546 0.625C5.57752 0.625 0.717041 5.48193 0.717041 11.4504C0.713501 13.3585 1.21265 15.2206 2.16138 16.8632L0.625 22.4741L6.36694 20.9661C7.9458 21.8298 9.72998 22.283 11.5425 22.2865H11.546C17.5145 22.2865 22.3715 17.4296 22.375 11.4575C22.375 8.56531 21.2493 5.84656 19.2067 3.80041ZM11.546 20.4563H11.5425C9.92822 20.4563 8.34229 20.0209 6.96167 19.2031L6.63245 19.0084L3.22339 19.9005L4.13318 16.58L3.92078 16.2401C3.01807 14.8064 2.5437 13.1497 2.5437 11.4504C2.5437 6.49084 6.58289 2.4552 11.5496 2.4552C13.9532 2.4552 16.2118 3.39331 17.911 5.09253C19.6102 6.79529 20.5448 9.05383 20.5448 11.4575C20.5448 16.4207 16.5056 20.4563 11.546 20.4563ZM16.4808 13.7161C16.2118 13.5815 14.8807 12.9266 14.6329 12.8381C14.3851 12.7461 14.2046 12.7036 14.024 12.9727C13.8435 13.2452 13.3267 13.8541 13.1674 14.0347C13.0116 14.2117 12.8523 14.2365 12.5833 14.1019C12.3107 13.9674 11.4398 13.6807 10.4061 12.7567C9.60254 12.0416 9.05737 11.1531 8.90161 10.884C8.74231 10.6115 8.88391 10.4663 9.01843 10.3318C9.14233 10.2114 9.29102 10.0167 9.42554 9.85742C9.56006 9.70166 9.60608 9.58838 9.69812 9.40784C9.78662 9.2273 9.7406 9.06799 9.67334 8.93347C9.60608 8.79895 9.06445 7.46436 8.83789 6.92273C8.61841 6.39526 8.39539 6.4696 8.229 6.45898C8.07324 6.4519 7.8927 6.45191 7.71216 6.45191C7.53162 6.45191 7.23779 6.51917 6.98999 6.79175C6.74219 7.06079 6.0448 7.7157 6.0448 9.04675C6.0448 10.3778 7.01477 11.6664 7.14929 11.8469C7.28381 12.0239 9.05737 14.7568 11.7726 15.9286C12.4169 16.2083 12.9196 16.3746 13.3125 16.4985C13.9603 16.7039 14.5515 16.6755 15.0188 16.6083C15.5392 16.5304 16.6189 15.9534 16.8455 15.3197C17.0685 14.6896 17.0685 14.1479 17.0012 14.0347C16.934 13.9214 16.7534 13.8541 16.4808 13.7161Z" fill="black"/>
</svg>
